<svg width="13" height="15" viewBox="0 0 13 15" fill="none" xmlns="http://www.w3.org/2000/svg">
<path d="M6.5 13C6.91241 13 7.28216 12.7467 7.43164 12.3623L10.9316 3.3623C11.1035 2.92046 10.9417 2.41904 10.5439 2.16113C10.1459 1.9033 9.62118 1.96032 9.28809 2.29785H9.28711C9.28511 2.29985 9.28176 2.30425 9.27637 2.30957C9.26556 2.32021 9.24803 2.337 9.22461 2.35938C9.17745 2.40444 9.10584 2.47078 9.01465 2.55176C8.83108 2.71476 8.57303 2.93155 8.27246 3.14551C7.62006 3.60989 6.96719 3.91992 6.5 3.91992C6.03281 3.91992 5.37994 3.60989 4.72754 3.14551C4.42697 2.93155 4.16892 2.71476 3.98535 2.55176C3.89416 2.47078 3.82255 2.40444 3.77539 2.35938C3.75197 2.337 3.73444 2.32021 3.72363 2.30957C3.71824 2.30425 3.71489 2.29985 3.71289 2.29785H3.71094C3.37783 1.96057 2.85395 1.90337 2.45605 2.16113C2.05832 2.41904 1.89653 2.92046 2.06836 3.3623L5.56836 12.3623L5.63379 12.5C5.81037 12.8061 6.13904 13 6.5 13Z" fill="#F96C90" stroke="white" stroke-width="2" stroke-linejoin="round"/>
</svg>
