<svg width="6" height="4" viewBox="0 0 6 4" fill="none" xmlns="http://www.w3.org/2000/svg">
<g clip-path="url(#clip0_2008_739)">
<path opacity="0.78" d="M-3.57129 0.5C-2.74293 0.500075 -2.07129 1.17162 -2.07129 2C-2.07129 2.82838 -2.74293 3.49992 -3.57129 3.5H-4C-4.82843 3.5 -5.5 2.82843 -5.5 2C-5.5 1.17157 -4.82843 0.5 -4 0.5H-3.57129ZM2.42871 0.5C3.25707 0.500076 3.92871 1.17162 3.92871 2C3.92871 2.82838 3.25707 3.49992 2.42871 3.5H1.57129C0.742926 3.49992 0.0712891 2.82838 0.0712891 2C0.0712891 1.17162 0.742926 0.500075 1.57129 0.5H2.42871ZM8.42871 0.5C9.25707 0.500076 9.92871 1.17162 9.92871 2C9.92871 2.82838 9.25707 3.49992 8.42871 3.5H7.57129C6.74293 3.49992 6.07129 2.82838 6.07129 2C6.07129 1.17162 6.74293 0.500075 7.57129 0.5H8.42871ZM14 0.5C14.8284 0.5 15.5 1.17157 15.5 2C15.5 2.82843 14.8284 3.5 14 3.5H13.5713C12.7429 3.49992 12.0713 2.82838 12.0713 2C12.0713 1.17162 12.7429 0.500075 13.5713 0.5H14Z" fill="#F96C90"/>
</g>
<defs>
<clipPath id="clip0_2008_739">
<rect width="6" height="4" fill="white"/>
</clipPath>
</defs>
</svg>
